<?xml version="1.0" encoding="UTF-8"?>
<svg xmlns="http://www.w3.org/2000/svg" xmlns:xlink="http://www.w3.org/1999/xlink" version="1.1" viewBox="0 0 500 500">
  <defs>
    <style>
      .cls-1 {
        fill: none;
      }

      .cls-2 {
        isolation: isolate;
      }

      .cls-3 {
        clip-path: url(#clippath);
      }
    </style>
    <clipPath id="clippath">
      <rect class="cls-1" x="100" y="253.4" width="300" height="255.7"/>
    </clipPath>
  </defs>
  <!-- Generator: Adobe Illustrator 28.7.1, SVG Export Plug-In . SVG Version: 1.2.0 Build 142)  -->
  <g>
    <g id="Layer_1">
      <g class="cls-2">
        <g class="cls-2">
          <path d="M138.4,153.3c4.5-2.8,8.6-6.2,13.3-10.7,7-6.7,12.2-12.8,17.2-20.5-8.4,1.3-13.4,2.5-17.3,4.1-1.1.4-1.6.6-2.2.6-1.5,0-3.5-1.4-5.3-3.8-1.3-1.6-2-3.2-2-3.9s0-.5.3-.8c2.2,2.6,4.3,3.7,7.2,3.7s14.7-1.5,22.1-2.7c0-6.2-.4-9.3-1.1-10.5-.8-1.5-2.9-2.7-5.3-3.2.6-.7.8-.8,2.3-.8,2.2,0,5.7.8,7.8,2,1.5.8,2,1.3,2,2.5s0,.8-.4,1.5c-.9,2.1-1.3,4.6-1.4,7.9,5.8-.8,7.6-1.3,10.6-2.5.8-.3,1-.4,1.5-.4,2.1,0,6.2,2.6,6.2,3.9s-.6,1.3-2.4,1.3-1.2,0-2.5,0c-1.7,0-3-.1-3.9-.1-2.2,0-4.4.1-9.6.6,0,.9,0,1.8,0,2.2,0,6.1.4,14,1.1,22.6.3,3.4.4,6,.4,7.6,0,3.8-1.8,7.4-3.6,7.4s-1.5-.5-2-1.5c-.6-1.5-1.1-2.2-2.5-3.4q-1.7-1.3-9.8-5.8l.4-.9c6.4,2,9.7,2.9,12.8,3.6,0-1.4.1-4.8.1-8.7s0-3.9,0-6.6c-.1-4.6-.2-7.7-.2-9.3s0-1.7,0-3c-3,4.7-5.6,7.8-10.9,13-7.4,7.2-16,13.2-22.2,15.6l-.6-.9Z"/>
        </g>
      </g>
      <g class="cls-2">
        <g class="cls-2">
          <path d="M197.7,85.9c6.4-4,12.3-8.8,19.1-15.2,10-9.5,17.4-18.3,24.6-29.4-12,1.9-19.2,3.5-24.8,5.8-1.6.6-2.3.8-3.2.8-2.2,0-5-2-7.6-5.4-1.8-2.3-2.9-4.5-2.9-5.6s.1-.7.4-1.2c3.2,3.7,6.2,5.3,10.3,5.3s21-2.1,31.6-3.9c-.1-8.8-.6-13.3-1.5-15-1.1-2.1-4.1-3.9-7.6-4.6.8-1,1.2-1.1,3.3-1.1,3.1,0,8.1,1.2,11.1,2.8,2.2,1.1,2.9,1.9,2.9,3.6s-.1,1.2-.6,2.2c-1.3,3-1.9,6.5-2,11.3,8.3-1.2,10.9-1.8,15.1-3.6,1.1-.4,1.4-.5,2.1-.5,3,0,8.8,3.7,8.8,5.6s-.9,1.8-3.4,1.8-1.7,0-3.5,0c-2.4-.1-4.3-.2-5.5-.2-3.2,0-6.3.2-13.7.9,0,1.3-.1,2.5-.1,3.1,0,8.7.6,20.1,1.6,32.4.4,4.9.6,8.6.6,10.8,0,5.4-2.6,10.6-5.2,10.6s-2.2-.7-2.8-2.1c-.8-2.1-1.6-3.2-3.6-4.8q-2.4-1.9-14-8.3l.5-1.3c9.1,2.8,13.8,4.1,18.3,5.2.1-2,.2-6.9.2-12.4s0-5.6-.1-9.4c-.2-6.5-.3-11-.3-13.3s0-2.4.1-4.3c-4.3,6.7-8,11.1-15.6,18.5-10.6,10.2-22.9,18.8-31.7,22.4l-.8-1.3Z"/>
        </g>
      </g>
      <g class="cls-2">
        <g class="cls-2">
          <path d="M185.7,303.2c13.2-11.3,20.4-19.7,27.7-32.2,5.5-9.4,10-19.6,10-22.4s-.4-1.1-1.7-1.1-9.4,1.4-15.6,2.9c-6.3,1.4-11.7,3.1-15.4,4.7-1.3.6-2.3.8-3.1.8-1.7,0-4-1.7-6-4.5-1.4-1.9-2.2-3.8-2.2-5.2s0-.9.6-1.8c1.3,3.2,4.2,4.9,7.9,4.9s9.7-1,23.9-3.4c7.4-1.3,8-1.4,9.8-2.4q1-.6,1.7-.6c1.3,0,3.6,1.5,6.1,3.9,1.8,1.8,2.6,3,2.6,4s-.2,1.2-1.2,2.3c-1.1,1.2-1.4,1.7-2.9,4.6-6.8,13.7-15.4,25.6-24.3,34-5.3,4.9-10.3,8.5-17.3,12.5l-.8-1Z"/>
        </g>
      </g>
      <g class="cls-2">
        <g class="cls-2">
          <path d="M172.8,420.9c8.4-5.3,15-12.4,18.6-19.7,3.5-7.3,4.9-15.6,5.4-31-7.3.5-15.6,1.5-21.5,2.9v3.3c0,.4,0,4.2.2,11,0,.3,0,1.6,0,3.7,0,1,0,1.8,0,2.4,0,3.5-.9,5.3-2.5,5.3s-4.9-4.8-4.9-7.7,0-1,.5-1.9c.5-1.1.8-2.6,1.1-4.6,0-1,.3-4.4.4-10.3-5.1,1-8.5,1.9-12.5,3.8-1.4.7-2.8,1.1-3.6,1.1-3,0-8.7-6.7-8.7-10.2s0-.5.3-.9c2.8,3.2,5.1,4.5,7.9,4.5s4-.4,6.8-.8q2.6-.4,6.4-1.1,1.9-.4,3.2-.6c0-4.4-.7-10.8-1.4-13-.6-1.7-1.6-3.3-3.2-4.4-.3-.2-1.2-.7-2.7-1.5.7-.7,1-.8,2.1-.8,2,0,5.5,1.3,8.2,3,2.3,1.4,3.4,2.8,3.4,4.4s0,1-.4,2.1c-.5,1.4-.9,5.4-.9,9.5q8.2-1.2,21.6-2.6c0-2.4,0-2.8,0-6.2,0-7.6-.4-10.6-1.6-12.3-1.3-1.6-3.4-2.8-6.6-3.6,1.4-.8,2.4-1.1,3.8-1.1,2.5,0,6.2.9,9.2,2.2,2.2,1,3.4,2.3,3.4,3.8s0,.8-.5,1.7c-1.1,2.6-1.6,7.6-1.8,14.8,7.4-.6,9.2-1,11.7-2,1.3-.6,1.7-.7,2.7-.7,3.2,0,8.7,3.7,8.7,5.7s-.9,1.7-2,1.7-1.1,0-1.7,0c-4-.5-8.4-.8-11.3-.8h-3.6q-3.1,0-4.5,0c-.6,18.2-2.3,26.8-6.7,34-4.5,7.4-13,14.4-22.2,18.3l-.9-1.4Z"/>
        </g>
      </g>
      <g class="cls-3">
        <g class="cls-2">
          <g class="cls-2">
            <path d="M138.3,437c3.2,2.7,5.3,3.5,8.1,3.5,4.3,0,10.9-1.1,16.7-2.8,4.2-1.3,5.8-1.8,7.8-3.2.5-.3,1-.4,1.5-.4,2.3,0,5.8,2.1,5.8,3.5s-1.5,1.7-5.2,2.5c-8.9,1.8-15,2.9-19.2,3.2,3.6,1.8,4.8,2.9,4.8,4.8s0,.5-.4,2.1c-.4,1.4-.7,3.7-.8,6.3,3.9-.6,16.1-2.4,17.3-2.6,2.2-.4,3.6-.7,4.9-1.3.6-.2,1.1-.4,1.5-.4,1.1,0,3.2.7,4.8,1.7,1.5.9,2.4,2,2.4,2.9s-.8,1.4-2.3,1.4h-.9c-1.3,0-4.6-.1-6.8-.1-6.6,0-11.1.4-21.2,1.6-.1,4.4-.2,6.3-.2,8.3,0,5.3.2,7.2,1,8.6.9,1.7,2.7,2.4,6,2.4,4.9,0,9.8-.7,12.9-1.9.2,0,.5-.1.8-.1.9,0,2.3.6,3.5,1.5,1.3.9,1.8,1.7,1.8,2.6s-.7,1.6-2.2,1.9c-2.4.4-6.9.7-10.2.7-9.4,0-13.6-1.3-15.6-4.9-1.4-2.4-1.9-5.1-2-10.2q0-1,0-5.9v-2.4c-5.6.8-11.1,2.1-13.6,3.2-.9.4-1.3.5-1.8.5-1,0-2.1-.5-3.4-1.6-1.9-1.7-3.7-4.6-3.7-6s.1-.9.4-1.4c1.9,2.8,3.8,4,6.7,4s5.7-.4,15.3-1.8c0-1.3,0-1.3,0-2.4,0-8.6-.2-9.8-1.8-11.2-.7,0-1.3,0-1.6,0-3.8,0-6.9-.9-9-2.6-1-.7-1.6-1.5-3.1-3.3l1-.8Z"/>
          </g>
        </g>
      </g>
    </g>
  </g>
</svg>