<svg xmlns="http://www.w3.org/2000/svg" viewBox="0 0 600 200">
  <!-- Path com efeito glitch na palavra TEST -->
  <path d="M10 50 H 100 V 60 H 20 V 70 H 100 V 80 H 10 Z
           M120 50 H 140 V 90 H 160 V 100 H 120 Z
           M180 50 H 280 V 60 H 200 V 70 H 250 V 80 H 180 Z
           M300 50 H 350 V 90 H 320 V 80 H 300 Z
           M20 110 H 100 V 120 H 40 V 130 H 100 V 140 H 20 Z
           M150 110 H 170 V 140 H 160 V 120 H 150 Z
           M200 110 H 280 V 120 H 240 V 130 H 280 V 140 H 200 Z
           M320 110 H 350 V 150 H 330 V 140 H 320 Z
           M20 170 H 100 V 180 H 20 Z
           M150 170 H 170 V 180 H 150 Z
           M200 170 H 280 V 180 H 200 Z
           M320 170 H 350 V 180 H 320 Z" 
           fill="pink" stroke="green" stroke-width="2"/>
</svg>
