<?xml version="1.0" encoding="UTF-8"?>
<svg xmlns="http://www.w3.org/2000/svg" version="1.1" viewBox="0 0 500 500">
  <g>
    <path d="M62.6,267.3c5.4-3.4,10.3-7.4,16-12.8,8.4-8,14.6-15.4,20.6-24.6-10.1,1.6-16.1,2.9-20.8,4.9-1.3.5-1.9.7-2.7.7-1.9,0-4.2-1.7-6.4-4.5-1.5-1.9-2.4-3.8-2.4-4.7s0-.6.3-1c2.7,3.1,5.2,4.5,8.7,4.5s17.6-1.8,26.5-3.3c0-7.4-.5-11.2-1.3-12.6-.9-1.8-3.4-3.3-6.4-3.9.7-.8,1-.9,2.8-.9,2.6,0,6.8,1,9.3,2.4,1.9.9,2.4,1.6,2.4,3s0,1-.5,1.9c-1.1,2.5-1.6,5.5-1.7,9.5,7-1,9.2-1.5,12.7-3,.9-.3,1.2-.4,1.8-.4,2.5,0,7.4,3.1,7.4,4.7s-.8,1.5-2.9,1.5-1.4,0-2.9,0c-2,0-3.6-.2-4.6-.2-2.7,0-5.3.2-11.5.8,0,1.1,0,2.1,0,2.6,0,7.3.5,16.8,1.3,27.2.3,4.1.5,7.2.5,9.1,0,4.5-2.2,8.9-4.4,8.9s-1.9-.6-2.4-1.8c-.7-1.8-1.3-2.7-3-4q-2-1.6-11.8-7l.4-1.1c7.7,2.4,11.6,3.4,15.4,4.4,0-1.7.2-5.8.2-10.4s0-4.7,0-7.9c-.2-5.5-.3-9.3-.3-11.2s0-2,0-3.6c-3.6,5.6-6.7,9.3-13.1,15.6-8.9,8.6-19.2,15.8-26.6,18.8l-.7-1.1Z"/>
    <path d="M137.8,267.3c5.4-3.4,10.3-7.4,16-12.8,8.4-8,14.6-15.4,20.6-24.6-10.1,1.6-16.1,2.9-20.8,4.9-1.3.5-1.9.7-2.7.7-1.9,0-4.2-1.7-6.4-4.5-1.5-1.9-2.4-3.8-2.4-4.7s0-.6.3-1c2.7,3.1,5.2,4.5,8.7,4.5s17.6-1.8,26.5-3.3c0-7.4-.5-11.2-1.3-12.6-.9-1.8-3.4-3.3-6.4-3.9.7-.8,1-.9,2.8-.9,2.6,0,6.8,1,9.3,2.4,1.9.9,2.4,1.6,2.4,3s0,1-.5,1.9c-1.1,2.5-1.6,5.5-1.7,9.5,7-1,9.2-1.5,12.7-3,.9-.3,1.2-.4,1.8-.4,2.5,0,7.4,3.1,7.4,4.7s-.8,1.5-2.9,1.5-1.4,0-2.9,0c-2,0-3.6-.2-4.6-.2-2.7,0-5.3.2-11.5.8,0,1.1,0,2.1,0,2.6,0,7.3.5,16.8,1.3,27.2.3,4.1.5,7.2.5,9.1,0,4.5-2.2,8.9-4.4,8.9s-1.9-.6-2.4-1.8c-.7-1.8-1.3-2.7-3-4q-2-1.6-11.8-7l.4-1.1c7.7,2.4,11.6,3.4,15.4,4.4,0-1.7.2-5.8.2-10.4s0-4.7,0-7.9c-.2-5.5-.3-9.3-.3-11.2s0-2,0-3.6c-3.6,5.6-6.7,9.3-13.1,15.6-8.9,8.6-19.2,15.8-26.6,18.8l-.7-1.1Z"/>
    <path d="M223.3,276.1c13.2-11.3,20.4-19.7,27.8-32.2,5.5-9.4,10-19.6,10-22.5s-.4-1.1-1.7-1.1-9.4,1.4-15.6,2.9c-6.3,1.4-11.7,3.1-15.4,4.7-1.3.6-2.3.8-3.1.8-1.7,0-4-1.7-6-4.5-1.4-1.9-2.2-3.8-2.2-5.2s0-.9.6-1.8c1.3,3.2,4.2,4.9,7.9,4.9s9.7-1,23.9-3.4c7.4-1.3,8-1.4,9.8-2.4q1-.6,1.7-.6c1.3,0,3.6,1.5,6.1,3.9,1.8,1.8,2.6,3,2.6,4s-.2,1.2-1.2,2.3c-1.1,1.2-1.4,1.7-2.9,4.6-6.8,13.7-15.4,25.7-24.3,34.1-5.3,4.9-10.3,8.5-17.3,12.5l-.8-1Z"/>
    <path d="M304.7,277.3c7.3-4.6,13-10.8,16.1-17.2,3-6.4,4.3-13.5,4.7-27-6.4.4-13.5,1.3-18.8,2.5v2.9c0,.3,0,3.6.2,9.6,0,.3,0,1.4,0,3.2,0,.8,0,1.6,0,2.1,0,3-.8,4.6-2.2,4.6s-4.3-4.2-4.3-6.7,0-.8.4-1.7c.4-.9.7-2.3.9-4,0-.8.3-3.9.3-9-4.5.8-7.4,1.7-10.8,3.3-1.3.6-2.4.9-3.1.9-2.6,0-7.6-5.8-7.6-8.9s0-.4.3-.8c2.4,2.8,4.5,4,6.9,4s3.4-.3,5.9-.7q2.3-.3,5.6-.9,1.7-.3,2.8-.5c0-3.9-.6-9.4-1.2-11.4-.5-1.5-1.4-2.9-2.8-3.9-.3-.2-1-.6-2.4-1.3.6-.6.8-.7,1.8-.7,1.8,0,4.8,1.1,7.1,2.6,2,1.2,2.9,2.4,2.9,3.9s0,.8-.3,1.9c-.4,1.2-.8,4.7-.8,8.2q7.1-1,18.8-2.3c0-2.1,0-2.4,0-5.4,0-6.6-.3-9.3-1.4-10.7-1.1-1.4-2.9-2.4-5.7-3.1,1.2-.7,2.1-.9,3.3-.9,2.2,0,5.4.8,8,1.9,1.9.8,2.9,2,2.9,3.3s0,.7-.4,1.5c-.9,2.3-1.4,6.6-1.6,12.9,6.5-.5,8-.8,10.2-1.8,1.1-.5,1.5-.6,2.4-.6,2.8,0,7.6,3.2,7.6,5s-.8,1.5-1.8,1.5-.9,0-1.5,0c-3.4-.4-7.3-.7-9.8-.7h-3.1q-2.7,0-4,0c-.5,15.8-2,23.3-5.8,29.6-4,6.5-11.4,12.5-19.3,15.9l-.8-1.2Z"/>
    <path d="M368.4,218.1c3.7,3,6.1,4,9.3,4,5,0,12.4-1.3,19-3.2,4.8-1.4,6.6-2.1,8.9-3.6.6-.3,1.1-.5,1.7-.5,2.6,0,6.6,2.4,6.6,4s-1.7,1.9-5.9,2.9c-10.2,2.1-17.2,3.3-22,3.6,4.1,2,5.5,3.4,5.5,5.5s0,.6-.4,2.4c-.4,1.6-.8,4.2-.9,7.2,4.5-.7,18.4-2.7,19.8-2.9,2.5-.4,4.1-.8,5.6-1.4.7-.3,1.3-.4,1.8-.4,1.3,0,3.6.8,5.5,1.9,1.7,1,2.7,2.3,2.7,3.3s-.9,1.6-2.6,1.6h-1c-1.4,0-5.3-.2-7.7-.2-7.6,0-12.6.4-24.1,1.9-.2,5-.3,7.2-.3,9.4,0,6.1.3,8.2,1.1,9.8,1,1.9,3.1,2.7,6.9,2.7,5.6,0,11.2-.8,14.7-2.2.3,0,.6-.2.9-.2,1,0,2.6.7,4,1.7,1.4,1,2.1,1.9,2.1,2.9s-.8,1.9-2.5,2.2c-2.8.5-7.8.8-11.7.8-10.8,0-15.5-1.5-17.8-5.6-1.6-2.8-2.2-5.8-2.3-11.6q0-1.2,0-6.7v-2.7c-6.4.9-12.6,2.4-15.6,3.7-1,.5-1.4.6-2,.6-1.2,0-2.4-.6-3.9-1.9-2.2-1.9-4.2-5.2-4.2-6.9s.2-1,.5-1.6c2.2,3.2,4.4,4.5,7.7,4.5s6.5-.4,17.4-2c0-1.4,0-1.5,0-2.7,0-9.8-.3-11.2-2.1-12.8-.8,0-1.4,0-1.9,0-4.4,0-7.8-1-10.3-2.9-1.1-.8-1.9-1.7-3.5-3.8l1.2-.9Z"/>
  </g>
</svg>