<?xml version="1.0" encoding="UTF-8"?>
<svg xmlns="http://www.w3.org/2000/svg" version="1.1" viewBox="0 0 500 500">
  <g>
      <g>
        <path d="M114.9,223.6c-2.3,0-2.4-.7-2.5-2.8-.2-2.5-.7-7.6-1.2-11.6-.4-3.9-.9-9.3-1-11.8,0-1.7-.9-3.1-1.8-3.1s-1.3.6-1.9,2.2c-1,2.7-3.4,7.6-5.3,12l-3.6,7.8c-1.2,2.7-2.2,5.1-2.5,6.1-.6,2.2-.9,2.5-1.5,2.5s-1.8-.9-2.4-2.7c-.6-2-3-7.2-4-9.9-1-2.7-2.8-6-4.1-8.8l-1.7-3.4c-.4-.9-.9-1.8-1.2-2.9-.4-1-1.2-2.8-1.9-3.6-.3-.4-.7-.6-1.1-.6s-.5.1-.7.4c-.4.5-.5,1.4-.5,2.8,0,5.3-.9,10.6-1.2,13,0,1.2-.4,3.6-.6,6,0,0,0,.1,0,.3-.2,2-.4,4-.4,5v.2c0,.4.1,1.1.1,1.7s0,.4,0,.6c0,.4-.4.8-2.1.8h-.6c-2.2-.2-2.7-.6-2.8-.7v-.6l.3-1c.4-2.1,1.9-10.7,2.5-15.9.4-4.4,1.7-15.9,1.7-18.6v-.9c0-.7.1-3.8.4-5.7.2-1.5.3-2.7,1-2.7,1.4,0,2,.4,2.4,1.2.3.4.4,1,.7,1.8.2.7.4,1.6.8,2.6.6,2.1,1.7,4.6,2.9,7l2.9,5.8c1.3,2.5,3.5,8.1,4.5,10.2.4,1.2,1,3,1.7,4.7.7,1.9,1.7,3.3,2.6,3.3,1.6,0,2.4-1.8,3-3.3.5-1.5.9-3.5,1.5-5,1.3-3,2.6-4.9,3.5-7.3,1-2.4,3.8-7.9,4.8-10.6.5-1.3,1.3-2.7,1.9-4,.6-1.2,1.2-2.5,1.3-3.4.2-1.7.9-2.7,1.7-2.7s1.8.6,1.9,4.2c.1,3.6.4,9.9.9,13.6.6,3.7,1.4,10.7,2,14.2.6,3.5,1.4,9.4,1.7,10.7,0,.4.2,1,.2,1.4v.4c-.1.4-.4.9-1.9.9h-.6Z"/>
        <path d="M142.4,217.7c-1.4,2.7-3.4,8.6-4.5,10.7s-1,2.2-1.4,3.2c-.4,1-.7,2.1-1.2,3.2l-.5,1.4c-.1.4-.3.7-.5,1-.2.3-.6.6-1.4.6h-.5c-1.8-.2-2.9-.2-2.9-1.1s.1-.5.4-.9c.6-1.2,1.2-2.2,1.9-3.2.6-1.1,1.4-2.3,1.8-3.6.9-2.5,1.7-3.9,2.2-4.8.2-.5.4-1.2.4-2v-.3c0-1.2-.5-2.7-1.8-4.3-1-1.2-1.7-2.8-2.4-4.5l-1-2.6c-.4-.9-.8-1.7-1.2-2.4-.9-1.4-1.8-3.1-2.6-4.7-.9-1.6-1.7-3.2-2.3-3.9-.5-.5-1.5-1.8-1.5-2.8s.4-.9,1.5-.9h.5c2.4.2,3.1.4,4,2.7.9,2.7,2.6,6.5,3.6,9.1.5,1.3,1.1,2.4,1.7,3.5.5,1.1.9,1.9,1.2,2.7l.2,1.2c0,.4.2.8.2,1.1.3.6.7,1.2,1.4,1.2s.4,0,.6-.1c1.6-.4,2.6-2.9,3.2-4.8.6-1.7,2.3-6,3.1-7.6.8-1.7,2.9-6.4,3-7.7,0-.5.7-.6,1.4-.6s.6,0,.9,0h1.1c.4.1.9.2,1.2.4.2,0,.4.1.4.4s0,.4-.3.7c-1.4,2.4-4.4,8.2-5.5,10.4-1.1,2.2-3,6.8-4.3,9.5Z"/>
        <path d="M177,198.2c-.1.5-.3.9-.5,1.3,0,.4-.2.6-.4.7,0,.2-.1.3-.4.3s-.4-.2-.5-.2c-.9-.4-1.5-.5-2.4-.5s-1.3,0-2.2.3c-2.4.6-5,2.7-5.3,6.6,0,1.2,0,2.6,0,4,0,2.7,0,5.3.4,6.8.1.9.4,2,.4,3s-.4,2.6-2.2,2.6-1.6,0-2.2.1c-.6,0-.9,0-1.1,0-.3-.1-.4-.4-.4-.8s0-.9,0-1.7c.5-4.2.6-7.4.6-10.5s0-8.5-.1-10.9l-.2-1.6c0-.4-.1-.7-.1-.9s0-.2,0-.3c0-.4.3-.9,2.1-.9s2.2.5,2.2,1.7v.5c0,.6,0,1.2.3,1.6.1.2.4.4.8.4s.2,0,.4,0c.4-.2.6-.6.9-1.1.9-1.8,3.6-3.5,5.5-3.5s3.7.6,4.2.8c.2.1.4.4.4.7s-.1.8-.4,1.5Z"/>
        <path d="M183.2,185.2c.1-1.7,1.4-2.8,3.3-2.8h.5c1.8.2,3.5,2,3.6,4-.3,1.7-1.2,2.9-3.3,2.9s-4-1.8-4.1-4ZM187.1,223.6c-2.2,0-2.3-.4-2.3-3s.6-8.1.6-11.2-.1-9.1-.3-11.3c0-.4,0-.6,0-.8,0-1.3.4-1.7,2.3-1.7s1.9.1,1.9,2.4,0,.7,0,1.2c-.2,2.4-.3,4.5-.3,6.4s0,3,0,4.4c0,3.1.6,9.4.9,11v.5c0,1.2-.6,2.1-2.7,2.1Z"/>
        <path d="M229.3,210.4c0,5.3-.8,6.5-3.9,9.9-3.1,3.3-6.6,3.9-11,4h-.4c-4.2,0-7.4-1.4-9.6-3.4-2.2-2-5-6.5-5-11.1s1.7-7.8,3.8-10c2.1-2.2,5-4.9,11.5-4.9h.4c4,.1,7.6,1.9,9.7,4.2,2.2,2.3,4.5,6,4.5,10.9v.4ZM222.6,203.3c-1.5-2.7-4.2-3.7-7.8-3.7s-4.5.3-7.3,2.4c-2.9,2.2-3.4,4.9-3.4,7.8s.6,4.8,2.7,7.1c2.1,2.4,3.7,3.2,7.2,3.6.4,0,.6,0,.9,0,2.2,0,4.2-.9,6-2.2.6-.4,1-.7,1.4-.9,1.8-1.4,2.8-5.1,2.8-7.8s-.4-2.4-.7-3.4c-.4-.9-1.1-1.7-1.8-3Z"/>
        <path d="M266,209.2c0,4.2-1.2,8.3-3.9,10.4l-2,1.6c-.6.5-1.2.9-1.8,1.3-1.3.7-2.8,1.2-5.3,1.2-5.2,0-5.9-.8-6.6-1.7-.4-.5-.7-1.1-1.2-1.5-.4-.4-.9-.8-1.4-.8h-.3c-1.2.1-1.7.9-1.7,2.5s0,1,.1,1.7c.3,1.7.3,3.1.3,4.5v1.1c0,.6,0,1.2,0,1.7,0,.9.1,2.2.3,3.2,0,.9,0,1.5,0,2v.4c0,.4-.6,1-2.4,1.1-.2,0-.4,0-.6,0-1.4,0-2.4-.5-2.4-2s0-.2,0-.4c.3-2.7.4-12,.6-15.6,0-.8,0-2,0-3.7,0-5.5-.1-14.8-.4-16.3,0-.6-.2-1.3-.2-2,0-1.1.4-1.9,1.7-1.9h.3c1.7.1,2.2.2,2.2,1.2v.9c0,.9,0,1.5.3,1.8.1.2.4.4.8.4s.8-.3,1.4-.8c2.1-2.1,5.2-4.2,8.5-4.2,3.5.1,7.6,1.8,9.4,4,1.9,2.3,4.1,5.7,4.1,9.5v.6ZM262,209.8v-.9c0-1.8-.5-3.3-1.1-4.5-.4-.6-.8-1.2-1.2-1.7-.4-.5-.8-.9-1.1-1.2-1.4-1.6-3.8-2.7-6.8-2.7s-2.1,0-3,.4l-1.2.6c-.5.2-1,.6-1.7.9-2.7,1.7-4.3,4.7-4.3,8.4s1.4,7.1,3.7,8.9c2.2,1.8,4.5,2.1,6.9,2.1s.7,0,1.1,0,.4,0,.4,0c.5,0,.9,0,1.4,0,.9-.3,1.8-.7,3.2-1.8,2.3-1.7,3-2.8,3.3-5.5l.2-2.9Z"/>
        <path d="M300.8,221.5c0,.4,0,.7-.1,1-.1.6-.6,1.1-1.8,1.1h-.4c-2.4-.2-3-.9-3-2.4s0-.8,0-1.2c.3-2.5.8-9.7.8-11.9v-.9c0-2.2,0-4.6-1.5-6.3-1.1-1.2-2.2-1.8-3.6-1.9-.4,0-.7,0-.9,0-1.2,0-3.9.6-5.3,1.7-1.3,1-3.1,2.5-3.3,6.1,0,1.6-.1,4.8-.1,7.7s0,5.7.1,6.6c0,.3,0,.6,0,.9,0,.9-.3,1.7-1.9,1.7h-.4c-2-.2-2.5-.5-2.5-1.7s0-.9.1-1.4c.2-3,.4-12.5.4-15.3s-.2-13-.5-17.4c-.2-4.3-.2-7.8-.2-9.6s.5-2,2.2-2h1.7c.4,0,.6.1.9.4.3.3.6.8.6,2.6v.4c-.1,4.2-.4,8.4-.7,10.9-.1,1.3-.2,2.3-.2,3.2s0,1.6.3,2.2c0,.6,0,1.4.5,1.8.2.2.4.4.9.4s1.2-.3,2.2-1.1c2-1.5,3.9-1.9,5.5-1.9s.9,0,1.2,0c1.9.1,5.5,1.4,6.7,3.2,1.2,1.9,2,5.2,2,7.8v.5c0,1.1,0,3,0,4.9,0,3,0,6.5.2,7.7,0,.6.1,1.1.1,1.7v.4Z"/>
        <path d="M328.1,217.7c-1.4,2.7-3.4,8.6-4.5,10.7s-1,2.2-1.4,3.2c-.4,1-.7,2.1-1.2,3.2l-.5,1.4c-.1.4-.3.7-.5,1-.2.3-.6.6-1.4.6h-.5c-1.8-.2-2.9-.2-2.9-1.1s.1-.5.4-.9c.6-1.2,1.2-2.2,1.9-3.2.6-1.1,1.4-2.3,1.8-3.6.9-2.5,1.7-3.9,2.2-4.8.2-.5.4-1.2.4-2v-.3c0-1.2-.5-2.7-1.8-4.3-1-1.2-1.7-2.8-2.4-4.5l-1-2.6c-.4-.9-.8-1.7-1.2-2.4-.9-1.4-1.8-3.1-2.6-4.7-.9-1.6-1.7-3.2-2.3-3.9-.5-.5-1.5-1.8-1.5-2.8s.4-.9,1.5-.9h.5c2.4.2,3.1.4,4,2.7.9,2.7,2.6,6.5,3.6,9.1.5,1.3,1.1,2.4,1.7,3.5.5,1.1.9,1.9,1.2,2.7l.2,1.2c0,.4.2.8.2,1.1.3.6.7,1.2,1.4,1.2s.4,0,.6-.1c1.6-.4,2.6-2.9,3.2-4.8.6-1.7,2.3-6,3.1-7.6.8-1.7,2.9-6.4,3-7.7,0-.5.7-.6,1.4-.6s.6,0,.9,0h1.1c.4.1.9.2,1.2.4.2,0,.4.1.4.4s0,.4-.3.7c-1.4,2.4-4.4,8.2-5.5,10.4-1.1,2.2-3,6.8-4.3,9.5Z"/>
        <path d="M349.2,224c-.4,0-1,0-1.3-.4-.4-.2-.9-.8-.9-2.3s0-.6,0-.9c.2-3.2.3-10.2.3-15.3s0-3.8,0-4.9v-9.5c0-3.7,0-7.2,0-8.1-.1-1.7-.3-4.9-.3-5.5s1.2-.6,2.2-.6h.4c1.4.2,2.7.4,2.7,3v.7c-.3,4-.6,12.8-.6,17.4v9.9c0,3.6,0,7.1.1,7.9.3,1.7.7,5.8.7,6.9s-.2,1.4-2.1,1.6c-.4,0-.8,0-1.2,0Z"/>
        <path d="M366.9,224c-.4,0-1,0-1.3-.4-.4-.2-.9-.8-.9-2.3s0-.6,0-.9c.2-3.2.3-10.2.3-15.3s0-3.8,0-4.9v-9.5c0-3.7,0-7.2,0-8.1-.1-1.7-.3-4.9-.3-5.5s1.2-.6,2.2-.6h.4c1.4.2,2.7.4,2.7,3v.7c-.3,4-.6,12.8-.6,17.4v9.9c0,3.6,0,7.1.1,7.9.3,1.7.7,5.8.7,6.9s-.2,1.4-2.1,1.6c-.4,0-.8,0-1.2,0Z"/>
        <path d="M405.3,213.6c0,2.2-.4,4.4-1.8,5.8-3,3-6.4,4.5-8.6,4.5s-6.1-.4-8.3-2.1c-2.3-1.7-3.9-4.6-3.9-7.5v-11.9c0-2.1-.4-3.6-.4-5.1s.4-1.2,2-1.2h.5c.4,0,.9,0,1.2,0h.5c0,.3.1.6.1,1.4v1.3c-.1,2.2-.2,3.6-.2,5.3s0,2.5,0,4.2c0,2.1.1,4,.3,5.5.2,1.6.6,3,1.5,4.1,1.4,1.9,2.7,2.3,4.5,2.3s.9,0,1.4,0h.2c2.2,0,3.7-.1,5.3-2.2,1.3-1.6,1.7-3.8,1.7-6.6s0-1.2,0-1.7c-.1-3.7-.4-9.3-.6-11,0-.4,0-.8,0-1.2,0-1.1.4-1.7,1.9-1.7h.4c2.1.1,2.6.6,2.6,2.1s0,.7,0,1.2c-.3,2.4-.5,6.7-.5,9.1s.4,3.4.4,5.6Z"/>
        <path d="M450.8,224c-1.4,0-2-.5-2-2.2s0-.7,0-1.2c.4-3.8,1-7.1,1.2-11.2,0-1.3,0-2.4,0-3.2s0-1.1,0-1.6c-.1-1.2-.5-2.2-1.2-3.1-1.4-1.3-2.7-1.9-4-1.9h-.5c-1.3.1-4.5,1-5.4,2.7-.7,1.4-1.9,4.8-1.9,8.1s.7,10.3.9,11.4c0,.3,0,.6,0,.9s0,.4-.1.6c-.1.2-.5.6-1.9.6-2.4,0-3.2-.8-3.2-2.5s.1-1.1.2-1.6c.3-2.9.8-8.1.8-11.7s-.2-5.8-.9-6.9c-.6-1.2-2-1.9-3.7-2.2h-.4c-1.7,0-4.2,1.2-5.3,2.8-1.2,1.7-2.1,3.5-2.3,6.6v1.6c0,3.2.3,7.7.6,9.7,0,.6.1,1.2.1,1.7,0,1.2-.4,1.9-2.2,1.9s-2.7-.5-2.7-2.7,0-1,0-1.7c.3-3.7.4-8.6.4-11.4s-.4-8.7-.4-10.5,1.1-1.8,2.1-1.8,2.3,0,2.5.7c0,0,0,.1,0,.2v.4c.1.4.2.7.4.9.1.2.4.4.8.4s1.2-.3,2.2-1.1c1.4-1,2.1-1.4,2.7-1.7.4-.1.9-.1,1.3-.1h.9c1.9,0,3.5.6,4.6,2.2,1.2,1.5,2.1,1.9,3,1.9h.5c.3-.1,1.2-.6,1.9-1.3.5-.5,1.2-1,1.8-1.4,1.4-.9,2.5-1.3,4.3-1.3s4.2.7,5.6,2.5c1.2,1.7,1.8,3.2,1.8,6.5v3c0,4,.3,9.1.6,11l.3,1.8c.1.6.2,1.2.2,1.7,0,.9-.4,1.7-1.8,1.9-.7.1-1.3.1-1.8.1Z"/>
      </g>
      <g>
        <path d="M123.1,273.8h-.4c-2-.1-2.7-.2-2.7-.9s0-.1,0-.2c0-.2,0-.4,0-.6,0-.9-.6-1.4-1.4-1.4s-1,.2-1.4.6c-.4.2-.7.6-1.1,1-.4.4-.9.8-1.4,1.2-1.2.8-3,1.4-5.5,1.4-5.3,0-8.5-2.2-10.4-4.5-1.8-2.2-3.5-6.8-3.5-9.6v-.6c.3-3,.9-6.6,2.4-8.9,2.2-3.1,6.8-5.7,10.9-5.7s5.7.9,6.5,1.9c.6.6,1.1,1.2,1.7,1.8.6.6,1.3.9,1.8.9s.2,0,.4,0c.9-.3,1.3-1.3,1.3-2.4s0-.5,0-.9.4-.6,1.3-.6h.7c1.2,0,2.2,0,2.2,1.9v.4c0,1,0,2.1,0,3.2,0,2.3,0,4.8,0,7.2v14.2c-.1.3-.4.6-1.4.6ZM120.2,256.8c-.2-.4-.6-.9-.7-1.4l-1.1-1.9c-.9-1.6-2.2-2.4-3.5-2.8-.4-.2-1.1-.3-1.5-.4,0,0,0,0-.4,0l-1.7-.4c-.4,0-.9,0-1.3,0-2.6,0-5.7,1.3-6.7,2.1-1.4,1-2.4,5.4-2.6,8v.6c0,2.5.6,4.8,1.6,6.5,1.2,1.9,3.9,3.3,7.1,3.5.6,0,1,0,1.4,0,2.2,0,3.7-.4,5.7-1.9,2.5-1.9,3.5-5.5,3.7-8.5,0-.5.1-1,.1-1.4,0-.7-.1-1.4-.4-1.9Z"/>
        <path d="M159.6,287.9c-1,0-2.8-.2-2.8-2s.7-6.3.9-9.4c0-1.5.2-3,.2-4.2s-.5-2.4-1.2-2.4c-1.2,0-2.7.5-4,2.3-1,1.4-4.2,1.9-5.9,1.9s-4.9-.2-7.8-3c-3-2.7-5.3-6.5-5.3-10.5s0-8,3.5-11.1c3.6-3.2,5.5-4,8.1-4s5.2.7,6.8,1.4c.4.2.7.4,1,.7.7.5,1.4,1.2,2.4,1.2s.4,0,.6,0c.8-.4,1.5-.6,1.5-1.6v-.6c0-.1.3-.7,1.4-.7h.6c.5.1,1.4.2,1.8.6.2.3.4.7.4,1.7s0,.6,0,1.1c-.3,2.4-.3,6.2-.3,9.6v5.3c0,4.1,0,13.8,0,16.3.2,2.5.7,5.8.7,6.3s-.4,1.1-2,1.1h-.6ZM157.4,259.4c0-.4,0-.6,0-1,0-1.5-.4-2.6-.8-3.7-.6-1.1-1.3-1.9-2.1-2.8-1.6-1.7-4.2-2.6-7.5-2.6s-4,.8-6,2.2c-2,1.4-3.2,4-3.2,8.3s1.6,6.6,3,7.9c1.4,1.4,3.6,2.2,6.1,2.4h.3c1.2,0,2.2-.3,3.3-.7,1.2-.5,2.3-1.2,3.6-1.9,2.2-1.3,2.7-3.2,2.9-5.5l.2-2.6Z"/>
        <path d="M197.9,263.8c0,2.2-.4,4.4-1.8,5.8-3,3-6.4,4.5-8.6,4.5s-6.1-.4-8.3-2.1c-2.3-1.7-3.9-4.6-3.9-7.5v-11.9c0-2.1-.4-3.6-.4-5.1s.4-1.2,2-1.2h.5c.4,0,.9,0,1.2,0h.5c0,.3.1.6.1,1.4v1.3c-.1,2.2-.2,3.6-.2,5.3s0,2.5,0,4.2c0,2.1.1,4,.3,5.5.2,1.6.6,3,1.5,4.1,1.4,1.9,2.7,2.3,4.5,2.3s.9,0,1.4,0h.2c2.2,0,3.7-.1,5.3-2.2,1.3-1.6,1.7-3.8,1.7-6.6s0-1.2,0-1.7c-.1-3.7-.4-9.3-.6-11,0-.4,0-.8,0-1.2,0-1.1.4-1.7,1.9-1.7h.4c2.1.1,2.6.6,2.6,2.1s0,.7,0,1.2c-.3,2.4-.5,6.7-.5,9.1s.4,3.4.4,5.6Z"/>
        <path d="M233.8,273.8h-.4c-2-.1-2.7-.2-2.7-.9s0-.1,0-.2c0-.2,0-.4,0-.6,0-.9-.6-1.4-1.4-1.4s-1,.2-1.4.6c-.4.2-.7.6-1.1,1-.4.4-.9.8-1.4,1.2-1.2.8-3,1.4-5.5,1.4-5.3,0-8.5-2.2-10.4-4.5-1.8-2.2-3.5-6.8-3.5-9.6v-.6c.3-3,.9-6.6,2.4-8.9,2.2-3.1,6.8-5.7,10.9-5.7s5.7.9,6.5,1.9c.6.6,1.1,1.2,1.7,1.8.6.6,1.3.9,1.8.9s.2,0,.4,0c.9-.3,1.3-1.3,1.3-2.4s0-.5,0-.9.4-.6,1.3-.6h.7c1.2,0,2.2,0,2.2,1.9v.4c0,1,0,2.1,0,3.2,0,2.3,0,4.8,0,7.2v14.2c-.1.3-.4.6-1.4.6ZM230.8,256.8c-.2-.4-.6-.9-.7-1.4l-1.1-1.9c-.9-1.6-2.2-2.4-3.5-2.8-.4-.2-1.1-.3-1.5-.4,0,0,0,0-.4,0l-1.7-.4c-.4,0-.9,0-1.3,0-2.6,0-5.7,1.3-6.7,2.1-1.4,1-2.4,5.4-2.6,8v.6c0,2.5.6,4.8,1.6,6.5,1.2,1.9,3.9,3.3,7.1,3.5.6,0,1,0,1.4,0,2.2,0,3.7-.4,5.7-1.9,2.5-1.9,3.5-5.5,3.7-8.5,0-.5.1-1,.1-1.4,0-.7-.1-1.4-.4-1.9Z"/>
        <path d="M257.3,250.1c-.9,0-1.7-.3-2.5-.3h-.2c-1.2,0-2.1.7-2.2,2.3,0,1.6-.2,4-.2,6.4s0,2.4.1,3.5c0,3,.4,8.2.6,10.2v.5c0,.9-.6,1.2-2.4,1.2h-1.9c-.2-.3-.4-.6-.4-2,0-2.8.4-9,.4-12.2s-.2-5.8-.2-6.9-1.5-2.4-2.7-2.4-.6,0-1,0-.7,0-1.1,0c-.6-.1-.9-.3-.9-.7s0-.1,0-.2c.2-2.2.8-2.8,1.8-2.8s1.2,0,1.7,0,.6,0,.9,0c.9-.2,1.5-.9,1.5-2.2v-.4c0-1.2-.1-2.4-.3-3.4,0-.7-.1-1.3-.1-1.7v-.3c.1-.4.8-1.3,1.9-1.3h.2c.4,0,1.2,0,1.5.3.2.1.4.5.4,1.6v.3c-.1,2.8-.1,4.5-.1,5.5s.4,1.2,1.1,1.4c.3,0,.6.1.9.1h1.2c.5.1.9.2,1.4.2s.9,0,1.2,0c.6.2.9.4.9,1,0,1.7-.5,2.2-1.4,2.2h-.3Z"/>
        <path d="M265.8,235.4c.1-1.7,1.4-2.8,3.3-2.8h.5c1.8.2,3.5,2,3.6,4-.3,1.7-1.2,2.9-3.3,2.9s-4-1.8-4.1-4ZM269.7,273.8c-2.2,0-2.3-.4-2.3-3s.6-8.1.6-11.2-.1-9.1-.3-11.3c0-.4,0-.6,0-.8,0-1.3.4-1.7,2.3-1.7s1.9.1,1.9,2.4,0,.7,0,1.2c-.2,2.4-.3,4.5-.3,6.4s0,3,0,4.4c0,3.1.6,9.4.9,11v.5c0,1.2-.6,2.1-2.7,2.1Z"/>
        <path d="M299.7,274.3c-1.1.2-2.2.4-3.5.4h-.6c-3.1-.2-6.5-1.1-9.6-4.2-3.2-3.2-4.1-6.9-4.2-9.9v-.4c0-3,1.3-8.4,3.6-10.6,2.6-2.3,6.1-4.5,10-4.5h.3c3.9.2,5.8.3,6.9,1,.3.3.6.4,1,.6.3.1.5.4.8.6.2.2.4.6.4,1.3s0,.4,0,.7c0,.7-.1,1.3-.2,1.8-.1.4-.1.7-.3.9,0,0-.1.1-.2.1s-.4-.2-.7-.4c-1.9-1.3-3.7-2.1-6.4-2.1h-.5c-2.9.1-4.2.4-6.8,2.4-2.5,2-3.4,4.8-3.4,7.6s.5,6,3.2,7.9c2.4,1.7,3.5,2.2,6.8,2.5h.9c3,0,5.1-1.1,6.4-2,.2-.1.4-.2.5-.2.4,0,.6.4.6,1.5v1.4c.2.4.2.7.2,1,0,.3-.2.6-1.6,1.2-1.3.4-2.4.9-3.7,1.2Z"/>
        <path d="M336.8,263.8c0,2.2-.4,4.4-1.8,5.8-3,3-6.4,4.5-8.6,4.5s-6.1-.4-8.3-2.1c-2.3-1.7-3.9-4.6-3.9-7.5v-11.9c0-2.1-.4-3.6-.4-5.1s.4-1.2,2-1.2h.5c.4,0,.9,0,1.2,0h.5c0,.3.1.6.1,1.4v1.3c-.1,2.2-.2,3.6-.2,5.3s0,2.5,0,4.2c0,2.1.1,4,.3,5.5.2,1.6.6,3,1.5,4.1,1.4,1.9,2.7,2.3,4.5,2.3s.9,0,1.4,0h.2c2.2,0,3.7-.1,5.3-2.2,1.3-1.6,1.7-3.8,1.7-6.6s0-1.2,0-1.7c-.1-3.7-.4-9.3-.6-11,0-.4,0-.8,0-1.2,0-1.1.4-1.7,1.9-1.7h.4c2.1.1,2.6.6,2.6,2.1s0,.7,0,1.2c-.3,2.4-.5,6.7-.5,9.1s.4,3.4.4,5.6Z"/>
        <path d="M382.3,274.2c-1.4,0-2-.5-2-2.2s0-.7,0-1.2c.4-3.8,1-7.1,1.2-11.2,0-1.3,0-2.4,0-3.2s0-1.1,0-1.6c-.1-1.2-.5-2.2-1.2-3.1-1.4-1.3-2.7-1.9-4-1.9h-.5c-1.3.1-4.5,1-5.4,2.7-.7,1.4-1.9,4.8-1.9,8.1s.7,10.3.9,11.4c0,.3,0,.6,0,.9s0,.4-.1.6c-.1.2-.5.6-1.9.6-2.4,0-3.2-.8-3.2-2.5s.1-1.1.2-1.6c.3-2.9.8-8.1.8-11.7s-.2-5.8-.9-6.9-2-1.9-3.7-2.2h-.4c-1.7,0-4.2,1.2-5.3,2.8-1.2,1.7-2.1,3.5-2.3,6.6v1.6c0,3.2.3,7.7.6,9.7,0,.6.1,1.2.1,1.7,0,1.2-.4,1.9-2.2,1.9s-2.7-.5-2.7-2.7,0-1,0-1.7c.3-3.7.4-8.6.4-11.4s-.4-8.7-.4-10.5,1.1-1.8,2.1-1.8,2.3,0,2.5.7c0,0,0,.1,0,.2v.4c.1.4.2.7.4.9.1.2.4.4.8.4s1.2-.3,2.2-1.1c1.4-1,2.1-1.4,2.7-1.7.4-.1.9-.1,1.3-.1h.9c1.9,0,3.5.6,4.6,2.2,1.2,1.5,2.1,1.9,3,1.9h.5c.3-.1,1.2-.6,1.9-1.3.5-.5,1.2-1,1.8-1.4,1.4-.9,2.5-1.3,4.3-1.3s4.2.7,5.6,2.5c1.2,1.7,1.8,3.2,1.8,6.5v3c0,4,.3,9.1.6,11l.3,1.8c.1.6.2,1.2.2,1.7,0,.9-.4,1.7-1.8,1.9-.7.1-1.3.1-1.8.1Z"/>
      </g>
  </g>
</svg>